Master sorcerer Balthazar Blake recruits a seemingly everyday guy in his mission to defend New York City from his arch-nemesis, Maxim Horvath.
 
http://www.imdb.com/title/tt0963966/

Subtitles (srt) : Dutch, English.

Covers included.

Balthazar Blake (Nicolas Cage) is een tovenaarsmeester in het hedendaagse Manhattan die probeert zijn stad te beschermen tegen zijn aartsvijand, Maxim Horvath. Balthazar kan dit echter niet alleen, daarom benadert hij de jonge Dave Stutler (Jay Baruchel). Dave is een doorsnee jongen maar heeft een verborgen potentieel om een tovenaar te kunnen worden. Balthazar neemt de jongen onder zijn hoede en geeft zijn onzekere leerling een stoomcursus magie. Het vergt het uiterste van Dave zijn moed om Balthazar's training te overleven, de stad te redden en het meisje van zijn dromen voor zich te winnen.
 
http://www.moviemeter.nl/film/61476

Ondertitels (srt) : Engels, Nederlands.

Hoesjes bijgevoegd.

General
Complete name                    : The Sorcerers Apprentice-AC3-XviD-BRRip[Eng]2010 2Lions-Team\The Sorcerers Apprentice-AC3-XviD-BRRip[Eng]2010 2Lions-Team.avi
Format                           : AVI
Format/Info                      : Audio Video Interleave
File size                        : 1.46 GiB
Duration                         : 1h 49mn
Overall bit rate                 : 1 918 Kbps
Writing application              : VirtualDubMod 1.5.4.1 (build 2178/release)
Writing library                  : VirtualDubMod build 2178/release
Source                           : The.Sorcerers.Apprentice.720p.Bluray.x264-CBGB

Video
ID                               : 0
Format                           : MPEG-4 Visual
Format profile                   : Simple@L3
Format settings, BVOP            : No
Format settings, QPel            : No
Format settings, GMC             : No warppoints
Format settings, Matrix          : Default (H.263)
Codec ID                         : XVID
Codec ID/Hint                    : XviD
Duration                         : 1h 49mn
Bit rate                         : 1 461 Kbps
Width                            : 720 pixels
Height                           : 304 pixels
Display aspect ratio             : 2.35:1
Frame rate                       : 23.976 fps
Resolution                       : 8 bits
Colorimetry                      : 4:2:0
Scan type                        : Progressive
Bits/(Pixel*Frame)               : 0.278
Stream size                      : 1.11 GiB (76%)
Writing library                  : XviD 1.1.2 (UTC 2006-11-01)

Audio
ID                               : 1
Format                           : AC-3
Format/Info                      : Audio Coding 3
Codec ID                         : 2000
Duration                         : 1h 49mn
Bit rate mode                    : Constant
Bit rate                         : 448 Kbps
Channel(s)                       : 6 channels
Channel positions                : Front: L C R, Surround: L R, LFE
Sampling rate                    : 48.0 KHz
Stream size                      : 349 MiB (23%)
Alignment                        : Split accross interleaves
Interleave, duration             : 42 ms (1.00 video frame)
Interleave, preload duration     : 500 ms

Thanks to Bradje for the source, and GEM-Releases for the Dutch subs.
 
Brought to you by Gollum.

DON T HIT AND RUN Niet gelijk afhaken als de FILM binnen is blijf seeden. 

Don`t quit after you finished the download, but keep seeding

There are fake torrents from uploaders who use our team name.
Those are not ours, or members from our team.
We 2Lions-Team are not responsible for the fake posts on our name

Wij 2Lions-Team zijn niet verantwoordelijk voor die zieke FAKE posten die op onze naam worden gedaan

Please check our site !!!

to the fakers , get a life !!!